<svg xmlns="http://www.w3.org/2000/svg" viewBox="0 0 64 64">
  <rect width="64" height="64" rx="16" fill="#050505" />
  <path d="M31.5 47.5C33.9 47.5 35.7 49.2 35.7 51.6C35.7 54 33.9 55.8 31.5 55.8C29.1 55.8 27.3 54 27.3 51.6C27.3 49.2 29.1 47.5 31.5 47.5ZM31.7 10C41.2 10 47.4 15.5 47.4 23.3C47.4 28.4 44.8 32.3 39.3 35.7C35.5 38.1 34.2 39.9 34.2 42.7V44.2H28.5V42.2C28.5 37.5 30.3 34.8 35.1 31.8C39.1 29.3 40.9 27.1 40.9 23.9C40.9 19.4 37.2 16.4 31.7 16.4C26.2 16.4 22.5 19.4 22 24.3H15.8C16.5 15.7 22.8 10 31.7 10Z" fill="#4cff73" />
</svg>
